# xmcd CD database file
#
# Track frame offsets:
#	150
#	18165
#	38398
#	60225
#	74633
#	96583
#	115278
#
# Disc length: 1735 seconds
#
# Revision: 4
# Processed by: cddbd v1.5.2PL0 Copyright (c) Steve Scherf et al.
# Submitted via: CDex 1.70beta2
#
DISCID=5506c507
DTITLE=Harem Scarem - Live Ones - Live And Acoustic -
DYEAR=1997
DGENRE=Rock
TTITLE0=Honestly(Acoustic Version)
TTITLE1=If There Was A Time(Edit)
TTITLE2=No Justice
TTITLE3=Mandy
TTITLE4=Hard To Love
TTITLE5=Jealousy(Acoustic)
TTITLE6=Something To Say(Edit)
EXTD=YEAR: 1997
EXTT0=
EXTT1=
EXTT2=
EXTT3=
EXTT4=
EXTT5=
EXTT6=
PLAYORDER=
